<?xml version="1.0" standalone="no"?>
<!DOCTYPE svg PUBLIC "-//W3C//DTD SVG 20010904//EN"
 "http://www.w3.org/TR/2001/REC-SVG-20010904/DTD/svg10.dtd">
<svg version="1.0" xmlns="http://www.w3.org/2000/svg"
 width="300.000000pt" height="300.000000pt" viewBox="0 0 300.000000 300.000000"
 preserveAspectRatio="xMidYMid meet">
<metadata>
Created by potrace 1.10, written by Peter Selinger 2001-2011
</metadata>
<g transform="translate(0.000000,300.000000) scale(0.100000,-0.100000)"
fill="#000000" stroke="none">
<path d="M1428 2603 c-13 -14 -158 -307 -158 -318 0 -2 -24 -54 -54 -116 -78
-167 -178 -400 -173 -405 2 -2 96 185 208 416 112 230 206 419 210 420 3 0 15
-20 27 -44 32 -67 442 -800 453 -811 19 -19 -159 336 -271 540 -15 28 -46 86
-70 130 -92 171 -116 205 -145 205 -7 0 -19 -8 -27 -17z"/>
<path d="M1400 2077 c-35 -45 -115 -146 -177 -224 -62 -79 -111 -143 -109
-143 5 0 168 185 276 313 35 42 70 77 77 77 11 0 81 -69 173 -170 133 -146
264 -269 165 -155 -81 93 -300 342 -324 367 -15 17 -20 12 -81 -65z"/>
<path d="M806 1571 c-16 -17 -18 -33 -14 -96 3 -42 10 -81 17 -88 8 -8 11 14
11 91 0 56 3 102 8 102 4 0 18 -32 32 -71 20 -61 26 -70 44 -65 12 2 50 10 86
17 96 18 101 33 8 25 -86 -6 -86 -6 -122 59 -25 46 -45 54 -70 26z"/>
<path d="M2146 1555 c-14 -15 -30 -42 -36 -61 -12 -37 -25 -40 -90 -26 -19 5
-46 5 -60 2 -24 -6 -24 -7 -4 -13 12 -4 53 -14 92 -21 l71 -13 22 61 c12 33
26 65 31 71 4 5 8 -29 9 -75 1 -47 4 -96 8 -110 7 -24 7 -24 14 9 4 18 7 64 7
101 0 54 -4 70 -19 85 -19 16 -21 16 -45 -10z"/>
<path d="M967 1413 c-59 -31 -105 -58 -103 -60 14 -14 216 86 216 107 0 13 9
17 -113 -47z"/>
<path d="M1935 1430 c27 -29 205 -112 205 -95 0 6 -160 92 -195 105 -29 11
-29 11 -10 -10z"/>
<path d="M1728 1275 c-2 -2 -122 -5 -267 -7 -250 -2 -266 -3 -305 -24 l-41
-22 -30 22 c-25 17 -44 21 -110 21 -74 0 -85 -3 -148 -38 l-68 -38 -32 20
c-68 44 -98 54 -124 40 l-23 -13 31 -13 c17 -7 53 -31 79 -53 26 -22 56 -40
65 -40 10 0 42 16 70 35 68 44 102 58 108 42 6 -18 -11 -197 -23 -239 -10 -36
-13 -38 -50 -38 -45 0 -47 9 -23 98 8 30 13 56 10 58 -2 3 -23 -11 -47 -31
-23 -19 -47 -35 -54 -35 -7 0 -27 16 -46 35 -19 19 -37 35 -42 35 -4 0 -5 -26
-2 -58 4 -36 2 -67 -5 -80 -12 -23 -68 -39 -83 -24 -9 9 15 253 28 273 9 15
-33 30 -44 16 -8 -10 -42 -213 -42 -253 0 -22 66 -84 89 -84 34 0 78 27 98 60
24 41 50 38 97 -10 30 -31 47 -40 73 -40 41 0 92 43 98 85 14 86 24 95 31 28
8 -66 14 -83 30 -83 8 0 17 -7 20 -15 4 -10 20 -15 44 -15 31 0 43 6 67 35 17
19 36 55 43 80 7 25 18 45 26 45 9 0 10 -8 4 -29 -30 -104 60 -152 257 -137
112 8 145 26 183 100 l15 29 5 -35 c6 -44 55 -88 97 -88 43 0 90 53 102 114
14 77 31 81 29 7 -1 -57 1 -64 27 -89 27 -24 38 -27 120 -31 224 -10 288 -7
325 14 48 29 74 76 71 134 -1 25 4 59 10 74 17 40 -2 97 -43 127 l-33 25 -320
2 c-176 2 -325 5 -332 7 -6 3 -13 3 -15 1z m-455 -57 l26 -13 -75 -76 c-66
-66 -76 -82 -81 -120 -7 -56 -27 -79 -68 -79 l-32 0 8 56 c9 66 6 77 -35 126
-17 20 -41 50 -53 66 l-23 30 23 6 c47 13 75 6 106 -26 17 -17 31 -38 31 -45
0 -21 13 -15 42 20 22 28 78 66 99 67 3 0 17 -6 32 -12z m372 -6 c6 0 75 2
154 5 79 2 156 0 171 -5 17 -6 33 -6 44 0 10 5 29 7 43 3 20 -5 24 -10 19 -28
-4 -12 -12 -67 -18 -122 -12 -109 -26 -138 -67 -133 -31 4 -33 22 -15 112 27
130 28 149 13 144 -8 -2 -15 -14 -17 -25 -4 -25 -56 -38 -104 -27 -25 5 -30 3
-25 -8 3 -8 1 -47 -3 -87 -9 -84 -28 -111 -75 -111 l-32 0 9 63 c4 34 13 75
18 91 17 50 14 58 -24 50 -19 -3 -49 -3 -66 1 -27 6 -31 10 -26 31 5 17 2 24
-8 24 -8 0 -16 -10 -18 -22 -3 -22 -7 -23 -125 -26 -100 -2 -123 -5 -123 -17
0 -12 20 -15 110 -15 99 0 111 -2 130 -22 36 -39 21 -105 -32 -138 -29 -18
-47 -20 -162 -18 -141 3 -155 9 -143 60 l7 26 132 -2 c112 -1 133 1 133 14 0
12 -13 14 -72 12 -101 -5 -150 5 -170 34 -14 22 -14 28 2 69 27 72 39 77 195
71 74 -2 140 -4 145 -4z m759 -13 c19 -15 26 -30 26 -54 0 -31 -3 -35 -35 -41
-35 -6 -77 12 -56 25 5 3 -34 6 -86 6 -85 0 -94 -2 -89 -18 2 -10 0 -34 -6
-53 -7 -27 -6 -39 3 -48 9 -8 10 -7 5 8 -5 14 -3 16 6 9 7 -6 40 -9 73 -8 76
3 71 2 89 21 12 12 23 13 43 7 42 -14 51 -37 27 -70 -33 -44 -60 -53 -172 -53
-97 0 -104 1 -129 26 -24 24 -25 29 -18 92 16 163 26 172 181 172 97 0 115 -3
138 -21z"/>
</g>
</svg>
